# xmcd
#
# Track frame offsets: 
#        300
#        12435
#        42026
#        64170
#        87667
#        112892
#        132178
#        152263
#        176458
#        186062
#        210929
#        233487
#
# Disc length: 3607 seconds
#
# Revision: 1
# Processed by: cddbd v1.5.2PL0 Copyright (c) Steve Scherf et al.
# Submitted via: ExactAudioCopy v0.95b3
#
DISCID=8c0e130c
DTITLE=The Spa Mandarin Oriental - Oriental Wisdom
DYEAR=2005
DGENRE=New Age
TTITLE0=Eastern Sun
TTITLE1=River Of Air
TTITLE2=Ajala
TTITLE3=The Peace Within
TTITLE4=Blossom On The Wind
TTITLE5=Pacificus
TTITLE6=Purple Dawn Luna
TTITLE7=Summer Of 300 Years
TTITLE8=Island Child
TTITLE9=Calling Wisdom
TTITLE10=Ancianet Guardians
TTITLE11=Lung Ta
EXTD=YEAR: 2005
EXTT0=
EXTT1=
EXTT2=
EXTT3=
EXTT4=
EXTT5=
EXTT6=
EXTT7=
EXTT8=
EXTT9=
EXTT10=
EXTT11=
PLAYORDER=
